# xmcd CD database file
#
# Track frame offsets:
#	150
#	18698
#	33157
#	47058
#	67166
#	81060
#	95742
#	116864
#	128655
#	145022
#
# Disc length: 2120 seconds
#
# Revision: 0
# Processed by: cddbd v1.5.2PL0 Copyright (c) Steve Scherf et al.
# Submitted via: CDex 1.70beta3
#
DISCID=8a08460a
DTITLE=太田昌宏 - Jazz Arrange Music World Vol.12 文部省唱歌編1
DYEAR=1900
DGENRE=Jazz
TTITLE0=青葉の笛
TTITLE1=鎌倉
TTITLE2=桜井の訣別
TTITLE3=紅葉
TTITLE4=故郷
TTITLE5=富士の山
TTITLE6=牧場の朝
TTITLE7=案山子
TTITLE8=春の唄
TTITLE9=春の小川
EXTD=
EXTT0=
EXTT1=
EXTT2=
EXTT3=
EXTT4=
EXTT5=
EXTT6=
EXTT7=
EXTT8=
EXTT9=
PLAYORDER=
